inDegrees=no
num_controls=7
num_derivatives=13
num_iterations=137
num_multipliers=7
num_parameters=0
num_slacks=7
num_states=26
objective=5.644556
objective_accelerations=0.767185
objective_balance=0.064355
objective_effort=0.319132
objective_height=4.470203
objective_ligament=0.023681
solver_duration=1532.154836
status=Solve_Succeeded
success=true
DataType=double
version=3
OpenSimVersion=4.4-2022-07-23-0e9fedc
endheader
time	/jointset/ground_pelvis/pelvis_tilt/value	/jointset/ground_pelvis/pelvis_tx/value	/jointset/ground_pelvis/pelvis_ty/value	/jointset/hip_l/hip_flexion_l/value	/jointset/hip_l/hip_adduction_l/value	/jointset/hip_l/hip_rotation_l/value	/jointset/back/lumbar_extension/value	/jointset/patellofemoral_l/patellar_flexion_l/value	/jointset/knee_l/knee_flexion_l/value	/jointset/knee_l/knee_adduction_l/value	/jointset/knee_l/knee_rotation_l/value	/jointset/ankle_l/ankle_angle_l/value	/jointset/subtalar_l/subtalar_angle_l/value	/jointset/ground_pelvis/pelvis_tilt/speed	/jointset/ground_pelvis/pelvis_tx/speed	/jointset/ground_pelvis/pelvis_ty/speed	/jointset/hip_l/hip_flexion_l/speed	/jointset/hip_l/hip_adduction_l/speed	/jointset/hip_l/hip_rotation_l/speed	/jointset/back/lumbar_extension/speed	/jointset/patellofemoral_l/patellar_flexion_l/speed	/jointset/knee_l/knee_flexion_l/speed	/jointset/knee_l/knee_adduction_l/speed	/jointset/knee_l/knee_rotation_l/speed	/jointset/ankle_l/ankle_angle_l/speed	/jointset/subtalar_l/subtalar_angle_l/speed	/forceset/tau_hip_flexion_l	/forceset/tau_hip_adduction_l	/forceset/tau_hip_rotation_l	/forceset/tau_knee_flexion_l	/forceset/tau_ankle_angle_l	/forceset/tau_subtalar_angle_l	/forceset/tau_lumbar_extension	lambda_cid13_p0	lambda_cid13_p1	lambda_cid13_p2	lambda_cid13_p3	lambda_cid13_p4	lambda_cid13_p5	lambda_cid14_p0	/jointset/ground_pelvis/pelvis_tilt/accel	/jointset/ground_pelvis/pelvis_tx/accel	/jointset/ground_pelvis/pelvis_ty/accel	/jointset/hip_l/hip_flexion_l/accel	/jointset/hip_l/hip_adduction_l/accel	/jointset/hip_l/hip_rotation_l/accel	/jointset/back/lumbar_extension/accel	/jointset/patellofemoral_l/patellar_flexion_l/accel	/jointset/knee_l/knee_flexion_l/accel	/jointset/knee_l/knee_adduction_l/accel	/jointset/knee_l/knee_rotation_l/accel	/jointset/ankle_l/ankle_angle_l/accel	/jointset/subtalar_l/subtalar_angle_l/accel	gamma_cid13_p0	gamma_cid13_p1	gamma_cid13_p2	gamma_cid13_p3	gamma_cid13_p4	gamma_cid13_p5	gamma_cid14_p0
0.5	-0.4204754368767666	-0.06863979626504917	0.7488070363487586	1.20682935791697	-0.4395439376148068	-0.2223049847026935	-0.2560157313629626	0.7753263183929122	0.7753263183928381	-0.1511860882628874	-0.1584974556434391	0.04144653457878108	-0.07048235341679056	-0.9792033227641885	-0.2882034605632998	-0.5649380006190777	2.75480668753613	-0.2088432496306171	0.756922937147968	-0.1028739905885725	1.895382427347595	1.895382427347479	0.06894256918898524	-0.0875674154724496	0.2754943104375427	-0.1011558904887655	-0.2062989129944564	0.01385604671471603	-0.006404794731218363	-0.1920491162790345	0.07861581809071075	0.05661816477207906	0.1912073507347471	-7.788154843780013	-25.956741602078	6.921895656170028	-7.360782385305014	-521.7842422423699	-66.29569238494724	-26.69120804522933	0.986596324536803	0.6968399362326151	-0.4302841588158571	-1.595054291775213	0.7785420192335187	-0.1105215594821095	1.129155886941914	-1.259718154551546	-1.259718154551535	0.07519513366006765	0.2009792310505492	-0.4194121697124306	0.6044962617167136	-2.842048636106079e-07	-1.181802695034542e-06	7.088349695849821e-07	-2.221556823781372e-07	-4.132349061919889e-07	2.637770322623083e-07	-3.359013640449979e-07
0.51	-0.4302157700825366	-0.07148662343574597	0.7431374015115974	1.234292294154058	-0.4415944646292228	-0.2147430084233538	-0.2569895922353312	0.7942144533484682	0.7942144533483487	-0.1504950495487516	-0.1593645783532077	0.04417961490710359	-0.07146519552963135	-0.9687231137028308	-0.2811344924720633	-0.5688673518345195	2.737401475961715	-0.2012475059035789	0.7553723131252325	-0.09195695147543444	1.881989589677684	1.881989589677632	0.0692617375466628	-0.08584425904500881	0.2710696095870339	-0.09541627155466184	-0.2129134547561041	0.01450676610334209	-0.006560411854927419	-0.194166144026129	0.07908275755939874	0.05741813619480516	0.1961288817112248	-7.874380183390015	-26.26025083061962	6.937362664614085	-7.488002653410431	-525.795350288104	-65.89295250873377	-25.83415552471245	1.099747856229373	0.7160045511071943	-0.3560984863564265	-1.870138804969745	0.7523667369857221	-0.1925988689187783	1.064162785046519	-1.417246008216622	-1.417246008207064	0.0095781480830117	0.1601186359025999	-0.4618545233170664	0.5582308537220423	-2.798615865601349e-07	-1.111131339783836e-06	7.161678347515797e-07	-2.131454525790792e-07	-3.883914238108638e-07	2.904137175249156e-07	-3.301113481833148e-07
0.52	-0.4398470982658359	-0.07426194506442291	0.7374321055855922	1.261569801432473	-0.4435685789688544	-0.2071995915932887	-0.2578560457442545	0.8129610240403291	0.8129610240401502	-0.1498009590588231	-0.1602140425412171	0.0468668771308041	-0.07239073422423818	-0.9574023182696985	-0.2739023521593312	-0.5720702183878578	2.717720895799498	-0.1935607146746789	0.7532110472925204	-0.08139251790041334	1.867069574607542	1.867069574607553	0.06955292435480047	-0.08403571112509861	0.2663306895126461	-0.08969520684196355	-0.2195279965176354	0.01515748549199884	-0.006716028978812773	-0.1962831717732064	0.07954969702808655	0.05821810761756752	0.2010504126878078	-7.965745803339798	-26.56466045963437	6.955030206645772	-7.628758008725934	-529.8988842293666	-65.53097947167197	-24.9789434217925	1.154713598891826	0.7294743805317013	-0.2849872263951459	-2.050128009335697	0.7967515196058395	-0.2326499214773868	1.058634779318605	-1.56515363459777	-1.565153634597773	0.06959882375211555	0.2180575295444524	-0.4822560144882173	0.6007854174356512	-2.723318901194209e-07	-1.065473472314678e-06	6.883725584713219e-07	-2.108129424504697e-07	-3.636218009673026e-07	3.156807892922187e-07	-3.23488173672391e-07
0.53	-0.4493611584589144	-0.07696429120270133	0.7316983996434528	1.288639544348128	-0.4454654037608684	-0.1996807840660729	-0.2586187349805422	0.8315509763611304	0.8315509763611192	-0.149103964306344	-0.1610449928793451	0.04950515487385179	-0.0732592029010158	-0.9452733189038924	-0.2665548034242746	-0.574549201425783	2.695869498089573	-0.1857964935604272	0.7504483502992914	-0.07122674868484317	1.850678714023439	1.850678714023358	0.06984325850875286	-0.08214490164293062	0.2612662230160402	-0.08401276009103018	-0.2261515526964825	0.01589440534641087	-0.006851864833916521	-0.1979792475659905	0.07936701007241145	0.05885009945549335	0.2058846823720717	-8.260628157235937	-26.75406426979434	6.947031365090884	-7.47148460993988	-533.8425698290163	-65.00251076883484	-24.12626385488456	1.262435548172824	0.7391640131787676	-0.211158672668947	-2.306396657512766	0.767490686946156	-0.3136453618153791	0.9833350936247385	-1.712314597711752	-1.712314597725531	0.008160621958858413	0.176201096075967	-0.5273695918981962	0.5499285350538191	-2.757327748765792e-07	-9.518270548669836e-07	7.868346736790893e-07	-1.796384177554584e-07	-3.492218468732977e-07	3.494494400966627e-07	-3.205432999093498e-07
0.54	-0.4587498401697858	-0.07959280807499208	0.7259435429048986	1.315480023085557	-0.4472843396858138	-0.1921927166635047	-0.2592822091044788	0.8499697676106074	0.8499697676107645	-0.1484041842301676	-0.1618567134349609	0.05209102242700452	-0.07407125626405783	-0.932326621828161	-0.259136498961796	-0.5763003776707855	2.671868060151974	-0.177982941261726	0.7470630223632729	-0.06154949543132072	1.832837360343529	1.832837360343356	0.07010998909238771	-0.08018975461984204	0.255848651533377	-0.07841214409483138	-0.2327751088752415	0.01663132520083599	-0.006987700688934367	-0.1996753233587832	0.07918432311673015	0.05948209129342963	0.210718952056422	-8.561189520434727	-26.94351623656258	6.940231400789117	-7.322373195243938	-537.8890809574254	-64.51603376634085	-23.27725499401312	1.318253140877026	0.7436255260160425	-0.1394258678105881	-2.480136054870869	0.8066177564957515	-0.3571761100352637	0.9609315869091525	-1.855252253759155	-1.855252253759155	0.06487810968864013	0.230925037728582	-0.5528770116996793	0.5844192664887439	-2.912270686186177e-07	-7.629592629749502e-07	1.024985817767227e-06	-1.165535790720873e-07	-3.462947177788021e-07	3.926240932400714e-07	-3.216680354843915e-07
0.55	-0.4680053057972662	-0.08214673874083796	0.7201748426578203	1.342070042258346	-0.4490248710096932	-0.1847408509288862	-0.2598513045294345	0.8682030220224398	0.8682030220225688	-0.1477021246254524	-0.1626479548770155	0.05462123791219527	-0.07482755112358784	-0.9186492399548251	-0.2516317595078465	-0.577312589135148	2.645781940361062	-0.1701191619543781	0.7431834226227457	-0.05236278893709227	1.813584364880194	1.813584364880169	0.070319474051519	-0.07806501163624312	0.2501625477619718	-0.07285103731854817	-0.2388021173505696	0.01664089399163506	-0.00719237847832939	-0.2022696969491395	0.08040370064993796	0.05996490558993965	0.2151047703716628	-8.412622169585219	-27.15950487459136	6.952151174860701	-7.563023819356315	-541.8949923145511	-64.04599504902322	-22.43330286085087	1.410037398099033	0.7565629312336671	-0.06312533392005155	-2.725963601217275	0.7768367547122159	-0.4226074924794974	0.8835602742103561	-1.994632307498294	-1.994632307476182	0.001526154040358137	0.2025456882280047	-0.5812717896740733	0.5412964217455584	-3.302583188803374e-07	-5.735474661666046e-07	1.392504063828375e-06	-3.216519450072766e-08	-3.687405349286786e-07	4.730573061030404e-07	-3.416264250252838e-07
0.5600000000000001	-0.4771204862685069	-0.08462508905691452	0.7143998189864641	1.368388577501237	-0.4506866487931235	-0.1773316323089612	-0.2603313288707333	0.8862368846566514	0.8862368846567655	-0.1469974616780954	-0.1634180895373709	0.05709363341371009	-0.07552836690764564	-0.9042695905799841	-0.2440204290079349	-0.5775650625263252	2.617571274169522	-0.1622322331727136	0.7385335994254921	-0.04373527870162618	1.792959004821752	1.792959004821873	0.07063065761124658	-0.07596839827054322	0.2442846547980398	-0.06731632900036769	-0.2448291258257876	0.01665046278244046	-0.007397056267394061	-0.2048640705395296	0.08162307818313003	0.06044771988644581	0.2194905886870184	-8.270713583678384	-27.37626178418784	6.96640349969843	-7.814924945935777	-546.0200340761791	-63.62086775320106	-21.59704925951245	1.458706641178163	0.764943735208471	0.01252174682646914	-2.905045334996695	0.8112476513590887	-0.511220801380539	0.8490923351567968	-2.129725172780614	-2.129725172780668	0.08521782980792168	0.225299114148784	-0.5912348502050481	0.5791395748682103	-3.975339169656735e-07	-3.834828634586842e-07	1.915262832257132e-06	7.778744513621756e-08	-4.216338875718007e-07	5.982007906294804e-07	-3.84185199325196e-07
0.5700000000000001	-0.4860883975478871	-0.08702704728386922	0.7086260177312091	1.394414703022147	-0.4522696692843216	-0.1699709416411544	-0.2607280407243678	0.9040575927395131	0.904057592739546	-0.1462907779419957	-0.1641663164648806	0.05950599067471298	-0.0761743976179752	-0.8891879742317232	-0.2363780567371078	-0.5770732772499567	2.58732686634793	-0.1543729938141371	0.7334967744297162	-0.03572600566177359	1.770966883119221	1.770966883119338	0.07071017985291728	-0.07367473645483488	0.2381341556524484	-0.06191058212380843	-0.2511145921772883	0.01717402955008252	-0.007482125174807302	-0.2063230756487096	0.08112180244848645	0.06071291496693632	0.2239340853151224	-8.664963371084742	-27.38577000473347	6.926071881059351	-7.409693594077441	-549.7986988104503	-62.91762204378465	-20.77253936481037	1.55153384363936	0.7628859164475483	0.08570329856816784	-3.133251068616977	0.7728625466513942	-0.5163926315749696	0.7590077430992416	-2.266233311801774	-2.266233311802308	-0.03005490937253483	0.2322033104141413	-0.6348332749713765	0.5179634549837384	-4.122072948344345e-07	-2.420140603600811e-07	2.124515092700037e-06	1.388807199347821e-07	-4.262161097763751e-07	6.547133909590316e-07	-3.878184610087839e-07
0.58	-0.4949017637213877	-0.08935278139943013	0.7028607736048232	1.420128561952274	-0.4537741772882213	-0.1626639150798927	-0.2610482272566519	0.9216519240767819	0.9216519240767362	-0.1455831738496053	-0.1648914460552276	0.06185526777861337	-0.0767670366173525	-0.8733605694038755	-0.2287756067291809	-0.5758536367525281	2.555117956011285	-0.146529735713781	0.7278007781179842	-0.02843021443392109	1.747683655704192	1.747683655704306	0.07081472886581826	-0.07134893083383413	0.2316686233774479	-0.05663798680989215	-0.2574000585287182	0.01769759631772135	-0.007567194082045156	-0.2077820807579102	0.08062052671382904	0.06097811004741462	0.2283775819433047	-9.063358335079865	-27.39531611877746	6.886619981229969	-7.03017698003421	-553.6696567608633	-62.27029364940185	-19.96169531607567	1.607864337095589	0.7569592826284389	0.1580927910385128	-3.297945838007209	0.8080513997150072	-0.6430550645717124	0.7063959727569258	-2.387946315280104	-2.387946315280137	0.09022318405400279	0.2317278752072786	-0.6542414760868909	0.5525092623396245	-3.583754556769609e-07	-1.638328102410529e-07	1.925479807859057e-06	1.363431940135973e-07	-3.678815109447043e-07	6.218462351251959e-07	-3.407580318432074e-07
